<svg id="visual" viewBox="0 0 900 600" width="900" height="600" xmlns="http://www.w3.org/2000/svg" xmlns:xlink="http://www.w3.org/1999/xlink" version="1.1"><rect x="0" y="0" width="900" height="600" fill="#001220"></rect><path d="M573 600L585.7 585.7C598.3 571.3 623.7 542.7 627.8 514.2C632 485.7 615 457.3 605.2 428.8C595.3 400.3 592.7 371.7 600.8 343C609 314.3 628 285.7 625.2 257C622.3 228.3 597.7 199.7 579 171.2C560.3 142.7 547.7 114.3 562 85.8C576.3 57.3 617.7 28.7 638.3 14.3L659 0L900 0L900 14.3C900 28.7 900 57.3 900 85.8C900 114.3 900 142.7 900 171.2C900 199.7 900 228.3 900 257C900 285.7 900 314.3 900 343C900 371.7 900 400.3 900 428.8C900 457.3 900 485.7 900 514.2C900 542.7 900 571.3 900 585.7L900 600Z" fill="#fa7268"></path><path d="M610 600L614 585.7C618 571.3 626 542.7 635.8 514.2C645.7 485.7 657.3 457.3 652.7 428.8C648 400.3 627 371.7 614.5 343C602 314.3 598 285.7 614.8 257C631.7 228.3 669.3 199.7 669.5 171.2C669.7 142.7 632.3 114.3 624.3 85.8C616.3 57.3 637.7 28.7 648.3 14.3L659 0L900 0L900 14.3C900 28.7 900 57.3 900 85.8C900 114.3 900 142.7 900 171.2C900 199.7 900 228.3 900 257C900 285.7 900 314.3 900 343C900 371.7 900 400.3 900 428.8C900 457.3 900 485.7 900 514.2C900 542.7 900 571.3 900 585.7L900 600Z" fill="#ef5f67"></path><path d="M694 600L702.7 585.7C711.3 571.3 728.7 542.7 736.7 514.2C744.7 485.7 743.3 457.3 730.7 428.8C718 400.3 694 371.7 691.8 343C689.7 314.3 709.3 285.7 722.3 257C735.3 228.3 741.7 199.7 741.7 171.2C741.7 142.7 735.3 114.3 728.7 85.8C722 57.3 715 28.7 711.5 14.3L708 0L900 0L900 14.3C900 28.7 900 57.3 900 85.8C900 114.3 900 142.7 900 171.2C900 199.7 900 228.3 900 257C900 285.7 900 314.3 900 343C900 371.7 900 400.3 900 428.8C900 457.3 900 485.7 900 514.2C900 542.7 900 571.3 900 585.7L900 600Z" fill="#e34c67"></path><path d="M807 600L803.5 585.7C800 571.3 793 542.7 792.3 514.2C791.7 485.7 797.3 457.3 787.2 428.8C777 400.3 751 371.7 752 343C753 314.3 781 285.7 783.8 257C786.7 228.3 764.3 199.7 751.7 171.2C739 142.7 736 114.3 743 85.8C750 57.3 767 28.7 775.5 14.3L784 0L900 0L900 14.3C900 28.7 900 57.3 900 85.8C900 114.3 900 142.7 900 171.2C900 199.7 900 228.3 900 257C900 285.7 900 314.3 900 343C900 371.7 900 400.3 900 428.8C900 457.3 900 485.7 900 514.2C900 542.7 900 571.3 900 585.7L900 600Z" fill="#d53867"></path><path d="M805 600L814.7 585.7C824.3 571.3 843.7 542.7 849.3 514.2C855 485.7 847 457.3 846.7 428.8C846.3 400.3 853.7 371.7 847.5 343C841.3 314.3 821.7 285.7 809.7 257C797.7 228.3 793.3 199.7 800.3 171.2C807.3 142.7 825.7 114.3 833.7 85.8C841.7 57.3 839.3 28.7 838.2 14.3L837 0L900 0L900 14.3C900 28.7 900 57.3 900 85.8C900 114.3 900 142.7 900 171.2C900 199.7 900 228.3 900 257C900 285.7 900 314.3 900 343C900 371.7 900 400.3 900 428.8C900 457.3 900 485.7 900 514.2C900 542.7 900 571.3 900 585.7L900 600Z" fill="#c62368"></path></svg>