<svg id="visual" viewBox="0 0 900 600" width="900" height="600" xmlns="http://www.w3.org/2000/svg" xmlns:xlink="http://www.w3.org/1999/xlink" version="1.1"><rect x="0" y="0" width="900" height="600" fill="#001220"></rect><path d="M0 388L21.5 397.5C43 407 86 426 128.8 432.8C171.7 439.7 214.3 434.3 257.2 429.5C300 424.7 343 420.3 385.8 421C428.7 421.7 471.3 427.3 514.2 430.5C557 433.7 600 434.3 642.8 431.7C685.7 429 728.3 423 771.2 423.3C814 423.7 857 430.3 878.5 433.7L900 437L900 601L878.5 601C857 601 814 601 771.2 601C728.3 601 685.7 601 642.8 601C600 601 557 601 514.2 601C471.3 601 428.7 601 385.8 601C343 601 300 601 257.2 601C214.3 601 171.7 601 128.8 601C86 601 43 601 21.5 601L0 601Z" fill="#fa7268"></path><path d="M0 426L21.5 427.8C43 429.7 86 433.3 128.8 438.2C171.7 443 214.3 449 257.2 444.3C300 439.7 343 424.3 385.8 415.3C428.7 406.3 471.3 403.7 514.2 402C557 400.3 600 399.7 642.8 400.5C685.7 401.3 728.3 403.7 771.2 412.2C814 420.7 857 435.3 878.5 442.7L900 450L900 601L878.5 601C857 601 814 601 771.2 601C728.3 601 685.7 601 642.8 601C600 601 557 601 514.2 601C471.3 601 428.7 601 385.8 601C343 601 300 601 257.2 601C214.3 601 171.7 601 128.8 601C86 601 43 601 21.5 601L0 601Z" fill="#ef5f67"></path><path d="M0 447L21.5 456.7C43 466.3 86 485.7 128.8 495C171.7 504.3 214.3 503.7 257.2 503.2C300 502.7 343 502.3 385.8 497C428.7 491.7 471.3 481.3 514.2 482.7C557 484 600 497 642.8 502C685.7 507 728.3 504 771.2 498.3C814 492.7 857 484.3 878.5 480.2L900 476L900 601L878.5 601C857 601 814 601 771.2 601C728.3 601 685.7 601 642.8 601C600 601 557 601 514.2 601C471.3 601 428.7 601 385.8 601C343 601 300 601 257.2 601C214.3 601 171.7 601 128.8 601C86 601 43 601 21.5 601L0 601Z" fill="#e34c67"></path><path d="M0 532L21.5 529.3C43 526.7 86 521.3 128.8 517C171.7 512.7 214.3 509.3 257.2 505.8C300 502.3 343 498.7 385.8 495.2C428.7 491.7 471.3 488.3 514.2 491.2C557 494 600 503 642.8 504.3C685.7 505.7 728.3 499.3 771.2 502.8C814 506.3 857 519.7 878.5 526.3L900 533L900 601L878.5 601C857 601 814 601 771.2 601C728.3 601 685.7 601 642.8 601C600 601 557 601 514.2 601C471.3 601 428.7 601 385.8 601C343 601 300 601 257.2 601C214.3 601 171.7 601 128.8 601C86 601 43 601 21.5 601L0 601Z" fill="#d53867"></path><path d="M0 548L21.5 544.2C43 540.3 86 532.7 128.8 531.2C171.7 529.7 214.3 534.3 257.2 536.2C300 538 343 537 385.8 542.2C428.7 547.3 471.3 558.7 514.2 560.8C557 563 600 556 642.8 555.3C685.7 554.7 728.3 560.3 771.2 557.8C814 555.3 857 544.7 878.5 539.3L900 534L900 601L878.5 601C857 601 814 601 771.2 601C728.3 601 685.7 601 642.8 601C600 601 557 601 514.2 601C471.3 601 428.7 601 385.8 601C343 601 300 601 257.2 601C214.3 601 171.7 601 128.8 601C86 601 43 601 21.5 601L0 601Z" fill="#c62368"></path></svg>