<svg id="visual" viewBox="0 0 900 600" width="900" height="600" xmlns="http://www.w3.org/2000/svg" xmlns:xlink="http://www.w3.org/1999/xlink" version="1.1"><rect x="0" y="0" width="900" height="600" fill="#001220"></rect><path d="M0 396L21.5 400.2C43 404.3 86 412.7 128.8 416.7C171.7 420.7 214.3 420.3 257.2 408.5C300 396.7 343 373.3 385.8 367.5C428.7 361.7 471.3 373.3 514.2 382C557 390.7 600 396.3 642.8 393.5C685.7 390.7 728.3 379.3 771.2 381.7C814 384 857 400 878.5 408L900 416L900 601L878.5 601C857 601 814 601 771.2 601C728.3 601 685.7 601 642.8 601C600 601 557 601 514.2 601C471.3 601 428.7 601 385.8 601C343 601 300 601 257.2 601C214.3 601 171.7 601 128.8 601C86 601 43 601 21.5 601L0 601Z" fill="#fa7268"></path><path d="M0 463L21.5 453C43 443 86 423 128.8 418.2C171.7 413.3 214.3 423.7 257.2 428.3C300 433 343 432 385.8 438C428.7 444 471.3 457 514.2 454.2C557 451.3 600 432.7 642.8 420.7C685.7 408.7 728.3 403.3 771.2 409.3C814 415.3 857 432.7 878.5 441.3L900 450L900 601L878.5 601C857 601 814 601 771.2 601C728.3 601 685.7 601 642.8 601C600 601 557 601 514.2 601C471.3 601 428.7 601 385.8 601C343 601 300 601 257.2 601C214.3 601 171.7 601 128.8 601C86 601 43 601 21.5 601L0 601Z" fill="#ef5f67"></path><path d="M0 495L21.5 494.3C43 493.7 86 492.3 128.8 490.3C171.7 488.3 214.3 485.7 257.2 487.8C300 490 343 497 385.8 492.3C428.7 487.7 471.3 471.3 514.2 461.5C557 451.7 600 448.3 642.8 446.7C685.7 445 728.3 445 771.2 454.3C814 463.7 857 482.3 878.5 491.7L900 501L900 601L878.5 601C857 601 814 601 771.2 601C728.3 601 685.7 601 642.8 601C600 601 557 601 514.2 601C471.3 601 428.7 601 385.8 601C343 601 300 601 257.2 601C214.3 601 171.7 601 128.8 601C86 601 43 601 21.5 601L0 601Z" fill="#e34c67"></path><path d="M0 512L21.5 517C43 522 86 532 128.8 527.8C171.7 523.7 214.3 505.3 257.2 502.5C300 499.7 343 512.3 385.8 515.3C428.7 518.3 471.3 511.7 514.2 508.5C557 505.3 600 505.7 642.8 509C685.7 512.3 728.3 518.7 771.2 524.5C814 530.3 857 535.7 878.5 538.3L900 541L900 601L878.5 601C857 601 814 601 771.2 601C728.3 601 685.7 601 642.8 601C600 601 557 601 514.2 601C471.3 601 428.7 601 385.8 601C343 601 300 601 257.2 601C214.3 601 171.7 601 128.8 601C86 601 43 601 21.5 601L0 601Z" fill="#d53867"></path><path d="M0 550L21.5 549.3C43 548.7 86 547.3 128.8 547.5C171.7 547.7 214.3 549.3 257.2 546.8C300 544.3 343 537.7 385.8 540.7C428.7 543.7 471.3 556.3 514.2 556.2C557 556 600 543 642.8 537.5C685.7 532 728.3 534 771.2 540.2C814 546.3 857 556.7 878.5 561.8L900 567L900 601L878.5 601C857 601 814 601 771.2 601C728.3 601 685.7 601 642.8 601C600 601 557 601 514.2 601C471.3 601 428.7 601 385.8 601C343 601 300 601 257.2 601C214.3 601 171.7 601 128.8 601C86 601 43 601 21.5 601L0 601Z" fill="#c62368"></path></svg>